<!-- Generator: Adobe Illustrator 25.0.1, SVG Export Plug-In  -->
<svg version="1.1" xmlns="http://www.w3.org/2000/svg" xmlns:xlink="http://www.w3.org/1999/xlink" x="0px" y="0px"
	 width="399.84px" height="470.08px" viewBox="0 0 399.84 470.08"
	 style="overflow:visible;enable-background:new 0 0 399.84 470.08;" xml:space="preserve">
<style type="text/css">
	.st0{fill:#FB9A5A;}
</style>
<defs>
</defs>
<g>
	<path class="st0" d="M399.84,270.16c0,110.24-89.68,199.92-199.92,199.92C89.68,470.08,0,380.4,0,270.16
		c0-36.44,9.92-72.13,28.66-103.18l52.16,31.49c-13.01,21.56-19.89,46.35-19.9,71.7c0,76.64,62.35,138.98,138.99,138.98
		c76.64,0,138.99-62.35,138.99-138.98c0-73.86-57.96-134.27-130.76-138.57h-29.81l25.1,63.54c0.84,2.13,0.16,4.56-1.67,5.93
		c-1.83,1.38-4.35,1.37-6.17-0.03L70.79,105.09c-1.25-0.97-1.99-2.44-1.99-4.04c0-1.58,0.74-3.07,1.99-4.04L195.6,1.05
		c0.92-0.71,2-1.05,3.1-1.05c1.08,0,2.15,0.34,3.07,1.02c1.83,1.37,2.51,3.81,1.67,5.94l-25.1,63.53l21.59-0.25
		c7.72,0,33.33,2.6,37.54,3.59C329.81,91.46,399.84,172.77,399.84,270.16z"/>
</g>
</svg>